<mxfile host="Electron" modified="2024-04-20T05:58:27.061Z" agent="Mozilla/5.0 (Windows NT 10.0; Win64; x64) AppleWebKit/537.36 (KHTML, like Gecko) draw.io/24.2.5 Chrome/120.0.6099.109 Electron/28.1.0 Safari/537.36" etag="woqoKrLdIAf-Yt7c69dD" version="24.2.5" type="device">
  <diagram name="ページ1" id="LE8fIzdrHe0wcv1LTvfw">
    <mxGraphModel dx="1913" dy="1151" grid="1" gridSize="10" guides="1" tooltips="1" connect="1" arrows="1" fold="1" page="1" pageScale="1" pageWidth="1600" pageHeight="1200" math="0" shadow="0">
      <root>
        <mxCell id="0" />
        <mxCell id="cFaB45KztUIKXS-_cTrr-4" value="背景" style="locked=1;" parent="0" visible="0" />
        <mxCell id="cFaB45KztUIKXS-_cTrr-5" value="" style="rounded=0;whiteSpace=wrap;html=1;strokeWidth=3;" parent="cFaB45KztUIKXS-_cTrr-4" vertex="1">
          <mxGeometry x="1" y="1" width="1595" height="1180" as="geometry" />
        </mxCell>
        <mxCell id="cFaB45KztUIKXS-_cTrr-6" value="" style="rounded=0;whiteSpace=wrap;html=1;fillColor=#B3B3B3;fontColor=#333333;strokeColor=#666666;" parent="cFaB45KztUIKXS-_cTrr-4" vertex="1">
          <mxGeometry width="1595" height="60" as="geometry" />
        </mxCell>
        <mxCell id="cFaB45KztUIKXS-_cTrr-7" value="&lt;font style=&quot;font-size: 48px;&quot;&gt;×&lt;/font&gt;" style="rounded=0;whiteSpace=wrap;html=1;" parent="cFaB45KztUIKXS-_cTrr-4" vertex="1">
          <mxGeometry x="1550" y="10" width="40" height="40" as="geometry" />
        </mxCell>
        <mxCell id="cFaB45KztUIKXS-_cTrr-8" value="" style="rounded=0;whiteSpace=wrap;html=1;" parent="cFaB45KztUIKXS-_cTrr-4" vertex="1">
          <mxGeometry x="830" y="670" width="120" height="60" as="geometry" />
        </mxCell>
        <mxCell id="cFaB45KztUIKXS-_cTrr-9" value="ウインドウ" style="locked=1;" parent="0" />
        <mxCell id="cFaB45KztUIKXS-_cTrr-10" value="" style="rounded=0;whiteSpace=wrap;html=1;strokeWidth=3;" parent="cFaB45KztUIKXS-_cTrr-9" vertex="1">
          <mxGeometry x="1" y="1" width="1589" height="2749" as="geometry" />
        </mxCell>
        <mxCell id="cFaB45KztUIKXS-_cTrr-11" value="" style="rounded=0;whiteSpace=wrap;html=1;fillColor=#B3B3B3;fontColor=#333333;strokeColor=#666666;" parent="cFaB45KztUIKXS-_cTrr-9" vertex="1">
          <mxGeometry width="1595" height="60" as="geometry" />
        </mxCell>
        <mxCell id="cFaB45KztUIKXS-_cTrr-12" value="&lt;font style=&quot;font-size: 48px;&quot;&gt;×&lt;/font&gt;" style="rounded=0;whiteSpace=wrap;html=1;" parent="cFaB45KztUIKXS-_cTrr-9" vertex="1">
          <mxGeometry x="1550" y="10" width="40" height="40" as="geometry" />
        </mxCell>
        <mxCell id="cFaB45KztUIKXS-_cTrr-14" value="名称未設定レイヤ" style="" parent="0" />
        <mxCell id="kxWkAaZomFuKM2yIZcbC-109" value="&lt;font style=&quot;font-size: 30px;&quot;&gt;山梨県架空市&lt;/font&gt;&lt;span style=&quot;font-size: 30px;&quot;&gt;&lt;br&gt;&lt;/span&gt;" style="rounded=0;whiteSpace=wrap;html=1;align=left;verticalAlign=top;" parent="cFaB45KztUIKXS-_cTrr-14" vertex="1">
          <mxGeometry x="360" y="160" width="650" height="80" as="geometry" />
        </mxCell>
        <mxCell id="kxWkAaZomFuKM2yIZcbC-110" value="&lt;span style=&quot;font-size: 30px;&quot;&gt;検索結果&lt;/span&gt;" style="rounded=0;whiteSpace=wrap;html=1;align=left;dashed=1;dashPattern=8 8;verticalAlign=bottom;" parent="cFaB45KztUIKXS-_cTrr-14" vertex="1">
          <mxGeometry x="30" y="356" width="310" height="46" as="geometry" />
        </mxCell>
        <mxCell id="5l2hKBXCzOEWmYN1dR5e-1" value="&lt;span style=&quot;font-size: 30px;&quot;&gt;選択&lt;/span&gt;" style="rounded=1;whiteSpace=wrap;html=1;" parent="cFaB45KztUIKXS-_cTrr-14" vertex="1">
          <mxGeometry x="1343" y="2639" width="210" height="60" as="geometry" />
        </mxCell>
        <mxCell id="5l2hKBXCzOEWmYN1dR5e-2" value="&lt;span style=&quot;font-size: 30px;&quot;&gt;閉じる&lt;/span&gt;" style="rounded=1;whiteSpace=wrap;html=1;" parent="cFaB45KztUIKXS-_cTrr-14" vertex="1">
          <mxGeometry x="1093" y="2639" width="210" height="60" as="geometry" />
        </mxCell>
        <mxCell id="5l2hKBXCzOEWmYN1dR5e-3" value="&lt;span style=&quot;font-size: 30px;&quot;&gt;検索&lt;/span&gt;" style="rounded=1;whiteSpace=wrap;html=1;" parent="cFaB45KztUIKXS-_cTrr-14" vertex="1">
          <mxGeometry x="1293" y="320" width="210" height="51" as="geometry" />
        </mxCell>
        <mxCell id="cdmeLEnnqN9o7mxTk7t2-22" value="&lt;span style=&quot;font-size: 30px;&quot;&gt;関連者の氏名&lt;/span&gt;&lt;div&gt;&lt;span style=&quot;font-size: 30px;&quot;&gt;または住所&lt;/span&gt;&lt;/div&gt;" style="rounded=0;whiteSpace=wrap;html=1;align=right;dashed=1;dashPattern=8 8;verticalAlign=bottom;" parent="cFaB45KztUIKXS-_cTrr-14" vertex="1">
          <mxGeometry x="29" y="159" width="310" height="81" as="geometry" />
        </mxCell>
        <mxCell id="cdmeLEnnqN9o7mxTk7t2-26" value="&lt;span style=&quot;font-size: 30px;&quot;&gt;最初&lt;/span&gt;" style="rounded=1;whiteSpace=wrap;html=1;" parent="cFaB45KztUIKXS-_cTrr-14" vertex="1">
          <mxGeometry x="390" y="690" width="110" height="51" as="geometry" />
        </mxCell>
        <mxCell id="cdmeLEnnqN9o7mxTk7t2-27" value="&lt;span style=&quot;font-size: 30px;&quot;&gt;最後&lt;/span&gt;" style="rounded=1;whiteSpace=wrap;html=1;" parent="cFaB45KztUIKXS-_cTrr-14" vertex="1">
          <mxGeometry x="1420" y="690" width="110" height="51" as="geometry" />
        </mxCell>
        <mxCell id="cdmeLEnnqN9o7mxTk7t2-28" value="&lt;span style=&quot;font-size: 30px;&quot;&gt;1&lt;/span&gt;" style="rounded=1;whiteSpace=wrap;html=1;" parent="cFaB45KztUIKXS-_cTrr-14" vertex="1">
          <mxGeometry x="648" y="690" width="110" height="51" as="geometry" />
        </mxCell>
        <mxCell id="cdmeLEnnqN9o7mxTk7t2-29" value="&lt;span style=&quot;font-size: 30px;&quot;&gt;2&lt;/span&gt;" style="rounded=1;whiteSpace=wrap;html=1;" parent="cFaB45KztUIKXS-_cTrr-14" vertex="1">
          <mxGeometry x="776" y="690" width="110" height="51" as="geometry" />
        </mxCell>
        <mxCell id="cdmeLEnnqN9o7mxTk7t2-30" value="&lt;span style=&quot;font-size: 30px;&quot;&gt;3&lt;/span&gt;" style="rounded=1;whiteSpace=wrap;html=1;" parent="cFaB45KztUIKXS-_cTrr-14" vertex="1">
          <mxGeometry x="905" y="691" width="110" height="51" as="geometry" />
        </mxCell>
        <mxCell id="cdmeLEnnqN9o7mxTk7t2-31" value="&lt;span style=&quot;font-size: 30px;&quot;&gt;4&lt;/span&gt;" style="rounded=1;whiteSpace=wrap;html=1;" parent="cFaB45KztUIKXS-_cTrr-14" vertex="1">
          <mxGeometry x="1034" y="691" width="110" height="51" as="geometry" />
        </mxCell>
        <mxCell id="cdmeLEnnqN9o7mxTk7t2-32" value="&lt;span style=&quot;font-size: 30px;&quot;&gt;5&lt;/span&gt;" style="rounded=1;whiteSpace=wrap;html=1;" parent="cFaB45KztUIKXS-_cTrr-14" vertex="1">
          <mxGeometry x="1163" y="691" width="110" height="51" as="geometry" />
        </mxCell>
        <mxCell id="cdmeLEnnqN9o7mxTk7t2-35" value="&lt;span style=&quot;font-size: 30px;&quot;&gt;&amp;gt;&amp;gt;&lt;/span&gt;" style="rounded=1;whiteSpace=wrap;html=1;" parent="cFaB45KztUIKXS-_cTrr-14" vertex="1">
          <mxGeometry x="1291" y="691" width="110" height="51" as="geometry" />
        </mxCell>
        <mxCell id="cdmeLEnnqN9o7mxTk7t2-36" value="&lt;span style=&quot;font-size: 30px;&quot;&gt;&amp;lt;&amp;lt;&lt;/span&gt;" style="rounded=1;whiteSpace=wrap;html=1;" parent="cFaB45KztUIKXS-_cTrr-14" vertex="1">
          <mxGeometry x="519" y="691" width="110" height="51" as="geometry" />
        </mxCell>
        <mxCell id="cdmeLEnnqN9o7mxTk7t2-40" value="&lt;div style=&quot;&quot;&gt;&lt;font style=&quot;font-size: 30px;&quot;&gt;スクロール&lt;/font&gt;&lt;/div&gt;" style="rounded=0;whiteSpace=wrap;html=1;align=left;verticalAlign=top;fillColor=#FFFFCC;rotation=90;" parent="cFaB45KztUIKXS-_cTrr-14" vertex="1">
          <mxGeometry x="1416" y="495" width="199" height="49" as="geometry" />
        </mxCell>
        <mxCell id="glqgW6hR8bMLOD4vA2c3-0" value="" style="shape=table;startSize=0;container=1;collapsible=0;childLayout=tableLayout;fontSize=16;" parent="cFaB45KztUIKXS-_cTrr-14" vertex="1">
          <mxGeometry x="24" y="420.5" width="1466" height="200" as="geometry" />
        </mxCell>
        <mxCell id="glqgW6hR8bMLOD4vA2c3-1" value="" style="shape=tableRow;horizontal=0;startSize=0;swimlaneHead=0;swimlaneBody=0;strokeColor=inherit;top=0;left=0;bottom=0;right=0;collapsible=0;dropTarget=0;fillColor=none;points=[[0,0.5],[1,0.5]];portConstraint=eastwest;fontSize=16;" parent="glqgW6hR8bMLOD4vA2c3-0" vertex="1">
          <mxGeometry width="1466" height="40" as="geometry" />
        </mxCell>
        <mxCell id="glqgW6hR8bMLOD4vA2c3-2" value="" style="shape=partialRectangle;html=1;whiteSpace=wrap;connectable=0;strokeColor=inherit;overflow=hidden;fillColor=none;top=0;left=0;bottom=0;right=0;pointerEvents=1;fontSize=16;" parent="glqgW6hR8bMLOD4vA2c3-1" vertex="1">
          <mxGeometry width="50" height="40" as="geometry">
            <mxRectangle width="50" height="40" as="alternateBounds" />
          </mxGeometry>
        </mxCell>
        <mxCell id="glqgW6hR8bMLOD4vA2c3-3" value="&lt;font style=&quot;font-size: 30px;&quot;&gt;関連者コード&lt;/font&gt;" style="shape=partialRectangle;html=1;whiteSpace=wrap;connectable=0;strokeColor=inherit;overflow=hidden;fillColor=none;top=0;left=0;bottom=0;right=0;pointerEvents=1;fontSize=16;" parent="glqgW6hR8bMLOD4vA2c3-1" vertex="1">
          <mxGeometry x="50" width="190" height="40" as="geometry">
            <mxRectangle width="190" height="40" as="alternateBounds" />
          </mxGeometry>
        </mxCell>
        <mxCell id="glqgW6hR8bMLOD4vA2c3-4" value="&lt;font style=&quot;font-size: 30px;&quot;&gt;委員会名&lt;/font&gt;" style="shape=partialRectangle;html=1;whiteSpace=wrap;connectable=0;strokeColor=inherit;overflow=hidden;fillColor=none;top=0;left=0;bottom=0;right=0;pointerEvents=1;fontSize=16;" parent="glqgW6hR8bMLOD4vA2c3-1" vertex="1">
          <mxGeometry x="240" width="496" height="40" as="geometry">
            <mxRectangle width="496" height="40" as="alternateBounds" />
          </mxGeometry>
        </mxCell>
        <mxCell id="glqgW6hR8bMLOD4vA2c3-5" value="&lt;font style=&quot;font-size: 30px;&quot;&gt;区分&lt;/font&gt;" style="shape=partialRectangle;html=1;whiteSpace=wrap;connectable=0;strokeColor=inherit;overflow=hidden;fillColor=none;top=0;left=0;bottom=0;right=0;pointerEvents=1;fontSize=16;" parent="glqgW6hR8bMLOD4vA2c3-1" vertex="1">
          <mxGeometry x="736" width="190" height="40" as="geometry">
            <mxRectangle width="190" height="40" as="alternateBounds" />
          </mxGeometry>
        </mxCell>
        <mxCell id="glqgW6hR8bMLOD4vA2c3-6" value="&lt;font style=&quot;font-size: 30px;&quot;&gt;住所&lt;/font&gt;" style="shape=partialRectangle;html=1;whiteSpace=wrap;connectable=0;strokeColor=inherit;overflow=hidden;fillColor=none;top=0;left=0;bottom=0;right=0;pointerEvents=1;fontSize=16;" parent="glqgW6hR8bMLOD4vA2c3-1" vertex="1">
          <mxGeometry x="926" width="540" height="40" as="geometry">
            <mxRectangle width="540" height="40" as="alternateBounds" />
          </mxGeometry>
        </mxCell>
        <mxCell id="glqgW6hR8bMLOD4vA2c3-7" value="" style="shape=tableRow;horizontal=0;startSize=0;swimlaneHead=0;swimlaneBody=0;strokeColor=inherit;top=0;left=0;bottom=0;right=0;collapsible=0;dropTarget=0;fillColor=none;points=[[0,0.5],[1,0.5]];portConstraint=eastwest;fontSize=16;" parent="glqgW6hR8bMLOD4vA2c3-0" vertex="1">
          <mxGeometry y="40" width="1466" height="40" as="geometry" />
        </mxCell>
        <mxCell id="glqgW6hR8bMLOD4vA2c3-8" value="" style="shape=partialRectangle;html=1;whiteSpace=wrap;connectable=0;strokeColor=inherit;overflow=hidden;fillColor=none;top=0;left=0;bottom=0;right=0;pointerEvents=1;fontSize=16;" parent="glqgW6hR8bMLOD4vA2c3-7" vertex="1">
          <mxGeometry width="50" height="40" as="geometry">
            <mxRectangle width="50" height="40" as="alternateBounds" />
          </mxGeometry>
        </mxCell>
        <mxCell id="glqgW6hR8bMLOD4vA2c3-9" value="&lt;font style=&quot;font-size: 30px;&quot;&gt;1122&lt;/font&gt;" style="shape=partialRectangle;html=1;whiteSpace=wrap;connectable=0;strokeColor=inherit;overflow=hidden;fillColor=none;top=0;left=0;bottom=0;right=0;pointerEvents=1;fontSize=16;" parent="glqgW6hR8bMLOD4vA2c3-7" vertex="1">
          <mxGeometry x="50" width="190" height="40" as="geometry">
            <mxRectangle width="190" height="40" as="alternateBounds" />
          </mxGeometry>
        </mxCell>
        <mxCell id="glqgW6hR8bMLOD4vA2c3-10" value="&lt;span style=&quot;font-size: 30px;&quot;&gt;パーティ参加　太郎&lt;/span&gt;" style="shape=partialRectangle;html=1;whiteSpace=wrap;connectable=0;strokeColor=inherit;overflow=hidden;fillColor=none;top=0;left=0;bottom=0;right=0;pointerEvents=1;fontSize=16;align=left;" parent="glqgW6hR8bMLOD4vA2c3-7" vertex="1">
          <mxGeometry x="240" width="496" height="40" as="geometry">
            <mxRectangle width="496" height="40" as="alternateBounds" />
          </mxGeometry>
        </mxCell>
        <mxCell id="glqgW6hR8bMLOD4vA2c3-11" value="&lt;font style=&quot;font-size: 30px;&quot;&gt;個人&lt;/font&gt;" style="shape=partialRectangle;html=1;whiteSpace=wrap;connectable=0;strokeColor=inherit;overflow=hidden;fillColor=none;top=0;left=0;bottom=0;right=0;pointerEvents=1;fontSize=16;" parent="glqgW6hR8bMLOD4vA2c3-7" vertex="1">
          <mxGeometry x="736" width="190" height="40" as="geometry">
            <mxRectangle width="190" height="40" as="alternateBounds" />
          </mxGeometry>
        </mxCell>
        <mxCell id="glqgW6hR8bMLOD4vA2c3-12" value="&lt;font style=&quot;font-size: 30px;&quot;&gt;山梨県架空市A町&lt;/font&gt;" style="shape=partialRectangle;html=1;whiteSpace=wrap;connectable=0;strokeColor=inherit;overflow=hidden;fillColor=none;top=0;left=0;bottom=0;right=0;pointerEvents=1;fontSize=16;align=left;" parent="glqgW6hR8bMLOD4vA2c3-7" vertex="1">
          <mxGeometry x="926" width="540" height="40" as="geometry">
            <mxRectangle width="540" height="40" as="alternateBounds" />
          </mxGeometry>
        </mxCell>
        <mxCell id="glqgW6hR8bMLOD4vA2c3-13" value="" style="shape=tableRow;horizontal=0;startSize=0;swimlaneHead=0;swimlaneBody=0;strokeColor=inherit;top=0;left=0;bottom=0;right=0;collapsible=0;dropTarget=0;fillColor=none;points=[[0,0.5],[1,0.5]];portConstraint=eastwest;fontSize=16;align=left;" parent="glqgW6hR8bMLOD4vA2c3-0" vertex="1">
          <mxGeometry y="80" width="1466" height="40" as="geometry" />
        </mxCell>
        <mxCell id="glqgW6hR8bMLOD4vA2c3-14" value="" style="shape=partialRectangle;html=1;whiteSpace=wrap;connectable=0;strokeColor=inherit;overflow=hidden;fillColor=none;top=0;left=0;bottom=0;right=0;pointerEvents=1;fontSize=16;" parent="glqgW6hR8bMLOD4vA2c3-13" vertex="1">
          <mxGeometry width="50" height="40" as="geometry">
            <mxRectangle width="50" height="40" as="alternateBounds" />
          </mxGeometry>
        </mxCell>
        <mxCell id="glqgW6hR8bMLOD4vA2c3-15" value="&lt;font style=&quot;font-size: 30px;&quot;&gt;3344&lt;/font&gt;" style="shape=partialRectangle;html=1;whiteSpace=wrap;connectable=0;strokeColor=inherit;overflow=hidden;fillColor=none;top=0;left=0;bottom=0;right=0;pointerEvents=1;fontSize=16;" parent="glqgW6hR8bMLOD4vA2c3-13" vertex="1">
          <mxGeometry x="50" width="190" height="40" as="geometry">
            <mxRectangle width="190" height="40" as="alternateBounds" />
          </mxGeometry>
        </mxCell>
        <mxCell id="glqgW6hR8bMLOD4vA2c3-16" value="&lt;font style=&quot;font-size: 30px;&quot;&gt;株式会社ハゲタカファンド&lt;br&gt;&lt;/font&gt;" style="shape=partialRectangle;html=1;whiteSpace=wrap;connectable=0;strokeColor=inherit;overflow=hidden;fillColor=none;top=0;left=0;bottom=0;right=0;pointerEvents=1;fontSize=16;align=left;" parent="glqgW6hR8bMLOD4vA2c3-13" vertex="1">
          <mxGeometry x="240" width="496" height="40" as="geometry">
            <mxRectangle width="496" height="40" as="alternateBounds" />
          </mxGeometry>
        </mxCell>
        <mxCell id="glqgW6hR8bMLOD4vA2c3-17" value="&lt;font style=&quot;font-size: 30px;&quot;&gt;法人&lt;/font&gt;" style="shape=partialRectangle;html=1;whiteSpace=wrap;connectable=0;strokeColor=inherit;overflow=hidden;fillColor=none;top=0;left=0;bottom=0;right=0;pointerEvents=1;fontSize=16;" parent="glqgW6hR8bMLOD4vA2c3-13" vertex="1">
          <mxGeometry x="736" width="190" height="40" as="geometry">
            <mxRectangle width="190" height="40" as="alternateBounds" />
          </mxGeometry>
        </mxCell>
        <mxCell id="glqgW6hR8bMLOD4vA2c3-18" value="&lt;span style=&quot;font-size: 30px;&quot;&gt;山梨県架空市B町&lt;/span&gt;" style="shape=partialRectangle;html=1;whiteSpace=wrap;connectable=0;strokeColor=inherit;overflow=hidden;fillColor=none;top=0;left=0;bottom=0;right=0;pointerEvents=1;fontSize=16;align=left;" parent="glqgW6hR8bMLOD4vA2c3-13" vertex="1">
          <mxGeometry x="926" width="540" height="40" as="geometry">
            <mxRectangle width="540" height="40" as="alternateBounds" />
          </mxGeometry>
        </mxCell>
        <mxCell id="glqgW6hR8bMLOD4vA2c3-19" style="shape=tableRow;horizontal=0;startSize=0;swimlaneHead=0;swimlaneBody=0;strokeColor=inherit;top=0;left=0;bottom=0;right=0;collapsible=0;dropTarget=0;fillColor=none;points=[[0,0.5],[1,0.5]];portConstraint=eastwest;fontSize=16;" parent="glqgW6hR8bMLOD4vA2c3-0" vertex="1">
          <mxGeometry y="120" width="1466" height="40" as="geometry" />
        </mxCell>
        <mxCell id="glqgW6hR8bMLOD4vA2c3-20" style="shape=partialRectangle;html=1;whiteSpace=wrap;connectable=0;strokeColor=inherit;overflow=hidden;fillColor=none;top=0;left=0;bottom=0;right=0;pointerEvents=1;fontSize=16;" parent="glqgW6hR8bMLOD4vA2c3-19" vertex="1">
          <mxGeometry width="50" height="40" as="geometry">
            <mxRectangle width="50" height="40" as="alternateBounds" />
          </mxGeometry>
        </mxCell>
        <mxCell id="glqgW6hR8bMLOD4vA2c3-21" value="&lt;font style=&quot;font-size: 30px;&quot;&gt;4455&lt;/font&gt;" style="shape=partialRectangle;html=1;whiteSpace=wrap;connectable=0;strokeColor=inherit;overflow=hidden;fillColor=none;top=0;left=0;bottom=0;right=0;pointerEvents=1;fontSize=16;" parent="glqgW6hR8bMLOD4vA2c3-19" vertex="1">
          <mxGeometry x="50" width="190" height="40" as="geometry">
            <mxRectangle width="190" height="40" as="alternateBounds" />
          </mxGeometry>
        </mxCell>
        <mxCell id="glqgW6hR8bMLOD4vA2c3-22" value="&lt;font style=&quot;font-size: 30px;&quot;&gt;政治団体太郎君を応援する会&lt;br&gt;&lt;/font&gt;" style="shape=partialRectangle;html=1;whiteSpace=wrap;connectable=0;strokeColor=inherit;overflow=hidden;fillColor=none;top=0;left=0;bottom=0;right=0;pointerEvents=1;fontSize=16;align=left;" parent="glqgW6hR8bMLOD4vA2c3-19" vertex="1">
          <mxGeometry x="240" width="496" height="40" as="geometry">
            <mxRectangle width="496" height="40" as="alternateBounds" />
          </mxGeometry>
        </mxCell>
        <mxCell id="glqgW6hR8bMLOD4vA2c3-23" value="&lt;span style=&quot;font-size: 30px;&quot;&gt;政治団体&lt;/span&gt;" style="shape=partialRectangle;html=1;whiteSpace=wrap;connectable=0;strokeColor=inherit;overflow=hidden;fillColor=none;top=0;left=0;bottom=0;right=0;pointerEvents=1;fontSize=16;" parent="glqgW6hR8bMLOD4vA2c3-19" vertex="1">
          <mxGeometry x="736" width="190" height="40" as="geometry">
            <mxRectangle width="190" height="40" as="alternateBounds" />
          </mxGeometry>
        </mxCell>
        <mxCell id="glqgW6hR8bMLOD4vA2c3-24" value="&lt;span style=&quot;font-size: 30px;&quot;&gt;山梨県架空市C町&lt;/span&gt;" style="shape=partialRectangle;html=1;whiteSpace=wrap;connectable=0;strokeColor=inherit;overflow=hidden;fillColor=none;top=0;left=0;bottom=0;right=0;pointerEvents=1;fontSize=16;align=left;" parent="glqgW6hR8bMLOD4vA2c3-19" vertex="1">
          <mxGeometry x="926" width="540" height="40" as="geometry">
            <mxRectangle width="540" height="40" as="alternateBounds" />
          </mxGeometry>
        </mxCell>
        <mxCell id="glqgW6hR8bMLOD4vA2c3-25" style="shape=tableRow;horizontal=0;startSize=0;swimlaneHead=0;swimlaneBody=0;strokeColor=inherit;top=0;left=0;bottom=0;right=0;collapsible=0;dropTarget=0;fillColor=none;points=[[0,0.5],[1,0.5]];portConstraint=eastwest;fontSize=16;" parent="glqgW6hR8bMLOD4vA2c3-0" vertex="1">
          <mxGeometry y="160" width="1466" height="40" as="geometry" />
        </mxCell>
        <mxCell id="glqgW6hR8bMLOD4vA2c3-26" style="shape=partialRectangle;html=1;whiteSpace=wrap;connectable=0;strokeColor=inherit;overflow=hidden;fillColor=none;top=0;left=0;bottom=0;right=0;pointerEvents=1;fontSize=16;" parent="glqgW6hR8bMLOD4vA2c3-25" vertex="1">
          <mxGeometry width="50" height="40" as="geometry">
            <mxRectangle width="50" height="40" as="alternateBounds" />
          </mxGeometry>
        </mxCell>
        <mxCell id="glqgW6hR8bMLOD4vA2c3-27" value="&lt;font style=&quot;font-size: 30px;&quot;&gt;5566&lt;/font&gt;" style="shape=partialRectangle;html=1;whiteSpace=wrap;connectable=0;strokeColor=inherit;overflow=hidden;fillColor=none;top=0;left=0;bottom=0;right=0;pointerEvents=1;fontSize=16;" parent="glqgW6hR8bMLOD4vA2c3-25" vertex="1">
          <mxGeometry x="50" width="190" height="40" as="geometry">
            <mxRectangle width="190" height="40" as="alternateBounds" />
          </mxGeometry>
        </mxCell>
        <mxCell id="glqgW6hR8bMLOD4vA2c3-28" value="&lt;font style=&quot;font-size: 30px;&quot;&gt;弁理士事務所職員連合会&lt;/font&gt;" style="shape=partialRectangle;html=1;whiteSpace=wrap;connectable=0;strokeColor=inherit;overflow=hidden;fillColor=none;top=0;left=0;bottom=0;right=0;pointerEvents=1;fontSize=16;align=left;" parent="glqgW6hR8bMLOD4vA2c3-25" vertex="1">
          <mxGeometry x="240" width="496" height="40" as="geometry">
            <mxRectangle width="496" height="40" as="alternateBounds" />
          </mxGeometry>
        </mxCell>
        <mxCell id="glqgW6hR8bMLOD4vA2c3-29" value="&lt;font style=&quot;font-size: 30px;&quot;&gt;法人&lt;/font&gt;" style="shape=partialRectangle;html=1;whiteSpace=wrap;connectable=0;strokeColor=inherit;overflow=hidden;fillColor=none;top=0;left=0;bottom=0;right=0;pointerEvents=1;fontSize=16;" parent="glqgW6hR8bMLOD4vA2c3-25" vertex="1">
          <mxGeometry x="736" width="190" height="40" as="geometry">
            <mxRectangle width="190" height="40" as="alternateBounds" />
          </mxGeometry>
        </mxCell>
        <mxCell id="glqgW6hR8bMLOD4vA2c3-30" value="&lt;div style=&quot;&quot;&gt;&lt;span style=&quot;font-size: 30px;&quot;&gt;山梨県架空市A町&lt;/span&gt;&lt;br&gt;&lt;/div&gt;" style="shape=partialRectangle;html=1;whiteSpace=wrap;connectable=0;strokeColor=inherit;overflow=hidden;fillColor=none;top=0;left=0;bottom=0;right=0;pointerEvents=1;fontSize=16;align=left;" parent="glqgW6hR8bMLOD4vA2c3-25" vertex="1">
          <mxGeometry x="926" width="540" height="40" as="geometry">
            <mxRectangle width="540" height="40" as="alternateBounds" />
          </mxGeometry>
        </mxCell>
        <mxCell id="glqgW6hR8bMLOD4vA2c3-37" value="&lt;font style=&quot;font-size: 84px;&quot;&gt;○&lt;/font&gt;" style="text;html=1;strokeColor=none;fillColor=none;align=center;verticalAlign=middle;whiteSpace=wrap;rounded=0;fontSize=60;" parent="cFaB45KztUIKXS-_cTrr-14" vertex="1">
          <mxGeometry x="25" y="461" width="60" height="30" as="geometry" />
        </mxCell>
        <mxCell id="glqgW6hR8bMLOD4vA2c3-38" value="&lt;font style=&quot;font-size: 84px;&quot;&gt;○&lt;/font&gt;" style="text;html=1;strokeColor=none;fillColor=none;align=center;verticalAlign=middle;whiteSpace=wrap;rounded=0;fontSize=60;" parent="cFaB45KztUIKXS-_cTrr-14" vertex="1">
          <mxGeometry x="25" y="500" width="60" height="30" as="geometry" />
        </mxCell>
        <mxCell id="glqgW6hR8bMLOD4vA2c3-39" value="&lt;font style=&quot;font-size: 84px;&quot;&gt;○&lt;/font&gt;" style="text;html=1;strokeColor=none;fillColor=none;align=center;verticalAlign=middle;whiteSpace=wrap;rounded=0;fontSize=60;" parent="cFaB45KztUIKXS-_cTrr-14" vertex="1">
          <mxGeometry x="24" y="540" width="60" height="30" as="geometry" />
        </mxCell>
        <mxCell id="glqgW6hR8bMLOD4vA2c3-40" value="&lt;font style=&quot;font-size: 48px;&quot;&gt;●&lt;/font&gt;" style="text;html=1;strokeColor=none;fillColor=none;align=center;verticalAlign=middle;whiteSpace=wrap;rounded=0;fontSize=48;" parent="cFaB45KztUIKXS-_cTrr-14" vertex="1">
          <mxGeometry x="24" y="542" width="60" height="30" as="geometry" />
        </mxCell>
        <mxCell id="glqgW6hR8bMLOD4vA2c3-41" value="&lt;font style=&quot;font-size: 84px;&quot;&gt;○&lt;/font&gt;" style="text;html=1;strokeColor=none;fillColor=none;align=center;verticalAlign=middle;whiteSpace=wrap;rounded=0;fontSize=60;" parent="cFaB45KztUIKXS-_cTrr-14" vertex="1">
          <mxGeometry x="25" y="580" width="60" height="30" as="geometry" />
        </mxCell>
        <mxCell id="glqgW6hR8bMLOD4vA2c3-43" value="&lt;span style=&quot;font-size: 30px;&quot;&gt;関連者区分&lt;/span&gt;" style="rounded=0;whiteSpace=wrap;html=1;align=right;dashed=1;dashPattern=8 8;verticalAlign=bottom;" parent="cFaB45KztUIKXS-_cTrr-14" vertex="1">
          <mxGeometry x="27" y="256" width="310" height="46" as="geometry" />
        </mxCell>
        <mxCell id="glqgW6hR8bMLOD4vA2c3-44" value="&lt;span style=&quot;font-size: 30px;&quot;&gt;☑個人&lt;/span&gt;" style="rounded=0;whiteSpace=wrap;html=1;align=left;dashed=1;dashPattern=8 8;verticalAlign=bottom;" parent="cFaB45KztUIKXS-_cTrr-14" vertex="1">
          <mxGeometry x="360" y="257" width="220" height="46" as="geometry" />
        </mxCell>
        <mxCell id="glqgW6hR8bMLOD4vA2c3-45" value="&lt;span style=&quot;font-size: 30px;&quot;&gt;☑法人&lt;/span&gt;" style="rounded=0;whiteSpace=wrap;html=1;align=left;dashed=1;dashPattern=8 8;verticalAlign=bottom;" parent="cFaB45KztUIKXS-_cTrr-14" vertex="1">
          <mxGeometry x="600" y="257" width="310" height="46" as="geometry" />
        </mxCell>
        <mxCell id="glqgW6hR8bMLOD4vA2c3-46" value="&lt;span style=&quot;font-size: 30px;&quot;&gt;☑政治団体&lt;/span&gt;" style="rounded=0;whiteSpace=wrap;html=1;align=left;dashed=1;dashPattern=8 8;verticalAlign=bottom;" parent="cFaB45KztUIKXS-_cTrr-14" vertex="1">
          <mxGeometry x="940" y="257" width="310" height="46" as="geometry" />
        </mxCell>
        <mxCell id="glqgW6hR8bMLOD4vA2c3-47" value="&lt;div style=&quot;&quot;&gt;&lt;font style=&quot;font-size: 30px;&quot;&gt;スクロール&lt;/font&gt;&lt;/div&gt;" style="rounded=0;whiteSpace=wrap;html=1;align=left;verticalAlign=top;fillColor=#FFFFCC;" parent="cFaB45KztUIKXS-_cTrr-14" vertex="1">
          <mxGeometry x="22" y="622" width="1508" height="48" as="geometry" />
        </mxCell>
        <mxCell id="glqgW6hR8bMLOD4vA2c3-48" value="&lt;div style=&quot;&quot;&gt;&lt;br&gt;&lt;/div&gt;" style="rounded=0;whiteSpace=wrap;html=1;align=left;verticalAlign=top;fillColor=#FFFF66;" parent="cFaB45KztUIKXS-_cTrr-14" vertex="1">
          <mxGeometry x="222" y="631" width="290" height="29" as="geometry" />
        </mxCell>
        <mxCell id="MmM4sdzbBg2WOu6LbQjL-0" value="&lt;span style=&quot;font-size: 30px;&quot;&gt;関連者検索条件&lt;/span&gt;" style="rounded=0;whiteSpace=wrap;html=1;align=left;dashed=1;dashPattern=8 8;verticalAlign=bottom;" parent="cFaB45KztUIKXS-_cTrr-14" vertex="1">
          <mxGeometry x="27" y="81" width="310" height="46" as="geometry" />
        </mxCell>
        <mxCell id="exs4zGd6wT2FuKp7XYla-0" value="&lt;span style=&quot;font-size: 30px;&quot;&gt;項目名称&lt;/span&gt;" style="rounded=0;whiteSpace=wrap;html=1;align=right;dashed=1;dashPattern=8 8;verticalAlign=bottom;" parent="cFaB45KztUIKXS-_cTrr-14" vertex="1">
          <mxGeometry x="37" y="906" width="310" height="46" as="geometry" />
        </mxCell>
        <mxCell id="exs4zGd6wT2FuKp7XYla-4" value="&lt;span style=&quot;font-size: 30px;&quot;&gt;新規追加&lt;/span&gt;" style="rounded=1;whiteSpace=wrap;html=1;" parent="cFaB45KztUIKXS-_cTrr-14" vertex="1">
          <mxGeometry x="30" y="750" width="270" height="51" as="geometry" />
        </mxCell>
        <mxCell id="exs4zGd6wT2FuKp7XYla-5" value="&lt;font style=&quot;font-size: 30px;&quot;&gt;NPO諸行無常&lt;/font&gt;&lt;span style=&quot;font-size: 30px;&quot;&gt;&lt;br&gt;&lt;/span&gt;" style="rounded=0;whiteSpace=wrap;html=1;align=left;verticalAlign=top;fillColor=#CCCCCC;" parent="cFaB45KztUIKXS-_cTrr-14" vertex="1">
          <mxGeometry x="380" y="906" width="650" height="52" as="geometry" />
        </mxCell>
        <mxCell id="exs4zGd6wT2FuKp7XYla-6" value="&lt;span style=&quot;font-size: 30px;&quot;&gt;個人・団体住所&lt;/span&gt;" style="rounded=0;whiteSpace=wrap;html=1;align=right;dashed=1;dashPattern=8 8;verticalAlign=bottom;" parent="cFaB45KztUIKXS-_cTrr-14" vertex="1">
          <mxGeometry x="37" y="976" width="310" height="46" as="geometry" />
        </mxCell>
        <mxCell id="exs4zGd6wT2FuKp7XYla-7" value="&lt;span style=&quot;font-size: 30px;&quot;&gt;宮崎県架空3市山肌町&lt;/span&gt;" style="rounded=0;whiteSpace=wrap;html=1;align=left;verticalAlign=top;fillColor=#CCCCCC;" parent="cFaB45KztUIKXS-_cTrr-14" vertex="1">
          <mxGeometry x="380" y="976" width="790" height="144" as="geometry" />
        </mxCell>
        <mxCell id="exs4zGd6wT2FuKp7XYla-8" value="&lt;span style=&quot;font-size: 30px;&quot;&gt;個人の職業&lt;/span&gt;&lt;div&gt;&lt;span style=&quot;font-size: 30px;&quot;&gt;団体の代表者名&lt;/span&gt;&lt;/div&gt;" style="rounded=0;whiteSpace=wrap;html=1;align=right;dashed=1;dashPattern=8 8;verticalAlign=bottom;" parent="cFaB45KztUIKXS-_cTrr-14" vertex="1">
          <mxGeometry x="37" y="1146" width="310" height="74" as="geometry" />
        </mxCell>
        <mxCell id="exs4zGd6wT2FuKp7XYla-10" value="&lt;font style=&quot;font-size: 30px;&quot;&gt;軽業師&lt;/font&gt;&lt;span style=&quot;font-size: 30px;&quot;&gt;&lt;br&gt;&lt;/span&gt;" style="rounded=0;whiteSpace=wrap;html=1;align=left;verticalAlign=top;fillColor=#CCCCCC;" parent="cFaB45KztUIKXS-_cTrr-14" vertex="1">
          <mxGeometry x="380" y="1145" width="650" height="52" as="geometry" />
        </mxCell>
        <mxCell id="exs4zGd6wT2FuKp7XYla-11" value="&lt;span style=&quot;font-size: 30px;&quot;&gt;収支報告書に記載される情報&lt;/span&gt;" style="rounded=0;whiteSpace=wrap;html=1;align=left;dashed=1;dashPattern=8 8;verticalAlign=bottom;" parent="cFaB45KztUIKXS-_cTrr-14" vertex="1">
          <mxGeometry x="26" y="830" width="657" height="46" as="geometry" />
        </mxCell>
        <mxCell id="exs4zGd6wT2FuKp7XYla-12" value="&lt;span style=&quot;font-size: 30px;&quot;&gt;下記の情報をもとに呼び出します&lt;/span&gt;" style="rounded=0;whiteSpace=wrap;html=1;align=left;dashed=1;dashPattern=8 8;verticalAlign=bottom;" parent="cFaB45KztUIKXS-_cTrr-14" vertex="1">
          <mxGeometry x="15" y="1254" width="657" height="46" as="geometry" />
        </mxCell>
        <mxCell id="exs4zGd6wT2FuKp7XYla-13" value="&lt;span style=&quot;font-size: 30px;&quot;&gt;摘要&lt;/span&gt;" style="rounded=0;whiteSpace=wrap;html=1;align=right;dashed=1;dashPattern=8 8;verticalAlign=bottom;" parent="cFaB45KztUIKXS-_cTrr-14" vertex="1">
          <mxGeometry x="177" y="1319" width="160" height="46" as="geometry" />
        </mxCell>
        <mxCell id="exs4zGd6wT2FuKp7XYla-14" value="&lt;span style=&quot;font-size: 30px;&quot;&gt;ﾌﾘｺﾐ ｾｲｼﾞﾀﾞﾝﾀｲ ｻﾌﾞﾛｳ&lt;/span&gt;" style="rounded=0;whiteSpace=wrap;html=1;align=left;" parent="cFaB45KztUIKXS-_cTrr-14" vertex="1">
          <mxGeometry x="357" y="1317" width="340" height="48" as="geometry" />
        </mxCell>
        <mxCell id="exs4zGd6wT2FuKp7XYla-15" value="&lt;span style=&quot;font-size: 30px;&quot;&gt;団体名称&lt;/span&gt;" style="rounded=0;whiteSpace=wrap;html=1;align=right;dashed=1;dashPattern=8 8;verticalAlign=bottom;" parent="cFaB45KztUIKXS-_cTrr-14" vertex="1">
          <mxGeometry x="162" y="2148" width="160" height="46" as="geometry" />
        </mxCell>
        <mxCell id="exs4zGd6wT2FuKp7XYla-16" value="&lt;span style=&quot;font-size: 30px;&quot;&gt;ＮPO法人諸行無常&lt;/span&gt;" style="rounded=0;whiteSpace=wrap;html=1;align=left;" parent="cFaB45KztUIKXS-_cTrr-14" vertex="1">
          <mxGeometry x="342" y="2147" width="737" height="48" as="geometry" />
        </mxCell>
        <mxCell id="exs4zGd6wT2FuKp7XYla-17" value="&lt;span style=&quot;font-size: 30px;&quot;&gt;全銀金融機関&lt;/span&gt;" style="rounded=0;whiteSpace=wrap;html=1;align=right;dashed=1;dashPattern=8 8;verticalAlign=bottom;" parent="cFaB45KztUIKXS-_cTrr-14" vertex="1">
          <mxGeometry x="130" y="1456" width="203" height="46" as="geometry" />
        </mxCell>
        <mxCell id="exs4zGd6wT2FuKp7XYla-18" value="&lt;span style=&quot;font-size: 30px;&quot;&gt;1233&lt;/span&gt;" style="rounded=0;whiteSpace=wrap;html=1;align=right;" parent="cFaB45KztUIKXS-_cTrr-14" vertex="1">
          <mxGeometry x="353" y="1454" width="190" height="48" as="geometry" />
        </mxCell>
        <mxCell id="exs4zGd6wT2FuKp7XYla-19" value="&lt;span style=&quot;font-size: 30px;&quot;&gt;首都圏信用金庫&lt;/span&gt;" style="rounded=0;whiteSpace=wrap;html=1;align=left;" parent="cFaB45KztUIKXS-_cTrr-14" vertex="1">
          <mxGeometry x="583" y="1454" width="420" height="48" as="geometry" />
        </mxCell>
        <mxCell id="exs4zGd6wT2FuKp7XYla-20" value="&lt;span style=&quot;font-size: 30px;&quot;&gt;支店&lt;/span&gt;" style="rounded=0;whiteSpace=wrap;html=1;align=right;dashed=1;dashPattern=8 8;verticalAlign=bottom;" parent="cFaB45KztUIKXS-_cTrr-14" vertex="1">
          <mxGeometry x="163" y="1526" width="170" height="46" as="geometry" />
        </mxCell>
        <mxCell id="exs4zGd6wT2FuKp7XYla-21" value="&lt;span style=&quot;font-size: 30px;&quot;&gt;987&lt;/span&gt;" style="rounded=0;whiteSpace=wrap;html=1;align=right;" parent="cFaB45KztUIKXS-_cTrr-14" vertex="1">
          <mxGeometry x="353" y="1524" width="190" height="48" as="geometry" />
        </mxCell>
        <mxCell id="exs4zGd6wT2FuKp7XYla-22" value="&lt;span style=&quot;font-size: 30px;&quot;&gt;本店&lt;/span&gt;" style="rounded=0;whiteSpace=wrap;html=1;align=left;" parent="cFaB45KztUIKXS-_cTrr-14" vertex="1">
          <mxGeometry x="583" y="1524" width="420" height="48" as="geometry" />
        </mxCell>
        <mxCell id="exs4zGd6wT2FuKp7XYla-23" value="&lt;span style=&quot;font-size: 30px;&quot;&gt;口座種別&lt;/span&gt;" style="rounded=0;whiteSpace=wrap;html=1;align=right;dashed=1;dashPattern=8 8;verticalAlign=bottom;" parent="cFaB45KztUIKXS-_cTrr-14" vertex="1">
          <mxGeometry x="163" y="1596" width="170" height="46" as="geometry" />
        </mxCell>
        <mxCell id="exs4zGd6wT2FuKp7XYla-24" value="&lt;span style=&quot;font-size: 30px;&quot;&gt;▼1普通口座&lt;/span&gt;" style="rounded=0;whiteSpace=wrap;html=1;align=left;" parent="cFaB45KztUIKXS-_cTrr-14" vertex="1">
          <mxGeometry x="353" y="1594" width="190" height="48" as="geometry" />
        </mxCell>
        <mxCell id="exs4zGd6wT2FuKp7XYla-25" value="&lt;span style=&quot;font-size: 30px;&quot;&gt;口座番号&lt;/span&gt;" style="rounded=0;whiteSpace=wrap;html=1;align=right;dashed=1;dashPattern=8 8;verticalAlign=bottom;" parent="cFaB45KztUIKXS-_cTrr-14" vertex="1">
          <mxGeometry x="162" y="1661" width="170" height="46" as="geometry" />
        </mxCell>
        <mxCell id="exs4zGd6wT2FuKp7XYla-26" value="&lt;span style=&quot;font-size: 30px;&quot;&gt;7654321&lt;/span&gt;" style="rounded=0;whiteSpace=wrap;html=1;align=right;" parent="cFaB45KztUIKXS-_cTrr-14" vertex="1">
          <mxGeometry x="352" y="1659" width="641" height="48" as="geometry" />
        </mxCell>
        <mxCell id="exs4zGd6wT2FuKp7XYla-27" value="&lt;span style=&quot;font-size: 30px;&quot;&gt;口座名義人&lt;/span&gt;" style="rounded=0;whiteSpace=wrap;html=1;align=right;dashed=1;dashPattern=8 8;verticalAlign=bottom;" parent="cFaB45KztUIKXS-_cTrr-14" vertex="1">
          <mxGeometry x="162" y="1731" width="170" height="46" as="geometry" />
        </mxCell>
        <mxCell id="exs4zGd6wT2FuKp7XYla-28" value="&lt;span style=&quot;font-size: 30px;&quot;&gt;ｾｲｼﾞﾀﾞﾝﾀｲ ｻﾌﾞﾛｳ&lt;/span&gt;" style="rounded=0;whiteSpace=wrap;html=1;align=left;" parent="cFaB45KztUIKXS-_cTrr-14" vertex="1">
          <mxGeometry x="352" y="1729" width="641" height="48" as="geometry" />
        </mxCell>
        <mxCell id="exs4zGd6wT2FuKp7XYla-29" value="&lt;span style=&quot;font-size: 30px;&quot;&gt;123&lt;br&gt;&lt;/span&gt;" style="rounded=0;whiteSpace=wrap;html=1;align=right;" parent="cFaB45KztUIKXS-_cTrr-14" vertex="1">
          <mxGeometry x="344" y="2211" width="170" height="48" as="geometry" />
        </mxCell>
        <mxCell id="exs4zGd6wT2FuKp7XYla-30" value="&lt;span style=&quot;font-size: 30px;&quot;&gt;郵便番号&lt;/span&gt;" style="rounded=0;whiteSpace=wrap;html=1;align=right;dashed=1;dashPattern=8 8;verticalAlign=bottom;" parent="cFaB45KztUIKXS-_cTrr-14" vertex="1">
          <mxGeometry x="14" y="2213" width="310" height="46" as="geometry" />
        </mxCell>
        <mxCell id="exs4zGd6wT2FuKp7XYla-31" value="&lt;span style=&quot;font-size: 30px;&quot;&gt;456x&lt;br&gt;&lt;/span&gt;" style="rounded=0;whiteSpace=wrap;html=1;align=right;" parent="cFaB45KztUIKXS-_cTrr-14" vertex="1">
          <mxGeometry x="574" y="2211" width="170" height="48" as="geometry" />
        </mxCell>
        <mxCell id="exs4zGd6wT2FuKp7XYla-32" value="&lt;span style=&quot;font-size: 30px;&quot;&gt;住所(郵便番号)&lt;/span&gt;" style="rounded=0;whiteSpace=wrap;html=1;align=right;dashed=1;dashPattern=8 8;verticalAlign=bottom;" parent="cFaB45KztUIKXS-_cTrr-14" vertex="1">
          <mxGeometry x="14" y="2273" width="310" height="46" as="geometry" />
        </mxCell>
        <mxCell id="exs4zGd6wT2FuKp7XYla-33" value="&lt;span style=&quot;font-size: 30px;&quot;&gt;番地&lt;/span&gt;" style="rounded=0;whiteSpace=wrap;html=1;align=right;dashed=1;dashPattern=8 8;verticalAlign=bottom;" parent="cFaB45KztUIKXS-_cTrr-14" vertex="1">
          <mxGeometry x="14" y="2336" width="310" height="46" as="geometry" />
        </mxCell>
        <mxCell id="exs4zGd6wT2FuKp7XYla-34" value="&lt;span style=&quot;font-size: 30px;&quot;&gt;建物&lt;/span&gt;" style="rounded=0;whiteSpace=wrap;html=1;align=right;dashed=1;dashPattern=8 8;verticalAlign=bottom;" parent="cFaB45KztUIKXS-_cTrr-14" vertex="1">
          <mxGeometry x="14" y="2398" width="310" height="46" as="geometry" />
        </mxCell>
        <mxCell id="exs4zGd6wT2FuKp7XYla-35" value="&lt;span style=&quot;font-size: 30px;&quot;&gt;東京都千代田区霞ケ浦&lt;/span&gt;" style="rounded=0;whiteSpace=wrap;html=1;align=left;" parent="cFaB45KztUIKXS-_cTrr-14" vertex="1">
          <mxGeometry x="344" y="2272" width="550" height="48" as="geometry" />
        </mxCell>
        <mxCell id="exs4zGd6wT2FuKp7XYla-36" value="&lt;span style=&quot;font-size: 30px;&quot;&gt;x丁目y番地&lt;/span&gt;" style="rounded=0;whiteSpace=wrap;html=1;align=left;" parent="cFaB45KztUIKXS-_cTrr-14" vertex="1">
          <mxGeometry x="344" y="2338" width="550" height="48" as="geometry" />
        </mxCell>
        <mxCell id="exs4zGd6wT2FuKp7XYla-37" value="&lt;span style=&quot;font-size: 30px;&quot;&gt;zzzabcビル3Fqqq号室&lt;/span&gt;" style="rounded=0;whiteSpace=wrap;html=1;align=left;" parent="cFaB45KztUIKXS-_cTrr-14" vertex="1">
          <mxGeometry x="344" y="2400" width="550" height="48" as="geometry" />
        </mxCell>
        <mxCell id="exs4zGd6wT2FuKp7XYla-38" value="&lt;span style=&quot;font-size: 30px;&quot;&gt;－&lt;/span&gt;" style="rounded=0;whiteSpace=wrap;html=1;align=right;dashed=1;dashPattern=8 8;verticalAlign=bottom;" parent="cFaB45KztUIKXS-_cTrr-14" vertex="1">
          <mxGeometry x="525" y="2213" width="40" height="46" as="geometry" />
        </mxCell>
        <mxCell id="exs4zGd6wT2FuKp7XYla-39" value="&lt;span style=&quot;font-size: 30px;&quot;&gt;個人の職業&lt;/span&gt;" style="rounded=0;whiteSpace=wrap;html=1;align=right;dashed=1;dashPattern=8 8;verticalAlign=bottom;" parent="cFaB45KztUIKXS-_cTrr-14" vertex="1">
          <mxGeometry x="14" y="2468" width="310" height="46" as="geometry" />
        </mxCell>
        <mxCell id="exs4zGd6wT2FuKp7XYla-40" value="&lt;span style=&quot;font-size: 30px;&quot;&gt;軽業師&lt;/span&gt;" style="rounded=0;whiteSpace=wrap;html=1;align=left;" parent="cFaB45KztUIKXS-_cTrr-14" vertex="1">
          <mxGeometry x="344" y="2470" width="550" height="48" as="geometry" />
        </mxCell>
        <mxCell id="exs4zGd6wT2FuKp7XYla-41" value="&lt;span style=&quot;font-size: 30px;&quot;&gt;個人姓名&lt;/span&gt;" style="rounded=0;whiteSpace=wrap;html=1;align=right;dashed=1;dashPattern=8 8;verticalAlign=bottom;" parent="cFaB45KztUIKXS-_cTrr-14" vertex="1">
          <mxGeometry x="162" y="2083" width="160" height="46" as="geometry" />
        </mxCell>
        <mxCell id="exs4zGd6wT2FuKp7XYla-42" value="&lt;span style=&quot;font-size: 30px;&quot;&gt;政治団体&lt;/span&gt;" style="rounded=0;whiteSpace=wrap;html=1;align=left;" parent="cFaB45KztUIKXS-_cTrr-14" vertex="1">
          <mxGeometry x="342" y="2082" width="340" height="48" as="geometry" />
        </mxCell>
        <mxCell id="exs4zGd6wT2FuKp7XYla-43" value="&lt;span style=&quot;font-size: 30px;&quot;&gt;三郎&lt;/span&gt;" style="rounded=0;whiteSpace=wrap;html=1;align=left;" parent="cFaB45KztUIKXS-_cTrr-14" vertex="1">
          <mxGeometry x="742" y="2082" width="340" height="48" as="geometry" />
        </mxCell>
        <mxCell id="exs4zGd6wT2FuKp7XYla-44" value="&lt;span style=&quot;font-size: 30px;&quot;&gt;名称区分&lt;/span&gt;" style="rounded=0;whiteSpace=wrap;html=1;align=right;dashed=1;dashPattern=8 8;verticalAlign=bottom;" parent="cFaB45KztUIKXS-_cTrr-14" vertex="1">
          <mxGeometry x="156" y="1821" width="170" height="46" as="geometry" />
        </mxCell>
        <mxCell id="exs4zGd6wT2FuKp7XYla-45" value="&lt;span style=&quot;font-size: 30px;&quot;&gt;個人(利用ユーザ：政治家)では共有されません。調査側には見えます)&lt;/span&gt;" style="rounded=0;whiteSpace=wrap;html=1;align=left;dashed=1;dashPattern=8 8;verticalAlign=bottom;" parent="cFaB45KztUIKXS-_cTrr-14" vertex="1">
          <mxGeometry x="389" y="1821" width="1141" height="46" as="geometry" />
        </mxCell>
        <mxCell id="exs4zGd6wT2FuKp7XYla-46" value="&lt;span style=&quot;font-size: 30px;&quot;&gt;法人(情報が利用者間で共有されます)&lt;/span&gt;" style="rounded=0;whiteSpace=wrap;html=1;align=left;dashed=1;dashPattern=8 8;verticalAlign=bottom;" parent="cFaB45KztUIKXS-_cTrr-14" vertex="1">
          <mxGeometry x="398" y="1887" width="527" height="40" as="geometry" />
        </mxCell>
        <mxCell id="exs4zGd6wT2FuKp7XYla-47" value="&lt;font style=&quot;font-size: 84px;&quot;&gt;○&lt;/font&gt;" style="text;html=1;strokeColor=none;fillColor=none;align=center;verticalAlign=middle;whiteSpace=wrap;rounded=0;fontSize=60;" parent="cFaB45KztUIKXS-_cTrr-14" vertex="1">
          <mxGeometry x="336" y="1826" width="60" height="30" as="geometry" />
        </mxCell>
        <mxCell id="exs4zGd6wT2FuKp7XYla-48" value="&lt;font style=&quot;font-size: 48px;&quot;&gt;●&lt;/font&gt;" style="text;html=1;strokeColor=none;fillColor=none;align=center;verticalAlign=middle;whiteSpace=wrap;rounded=0;fontSize=48;" parent="cFaB45KztUIKXS-_cTrr-14" vertex="1">
          <mxGeometry x="337" y="1827" width="60" height="30" as="geometry" />
        </mxCell>
        <mxCell id="exs4zGd6wT2FuKp7XYla-49" value="&lt;font style=&quot;font-size: 84px;&quot;&gt;○&lt;/font&gt;" style="text;html=1;strokeColor=none;fillColor=none;align=center;verticalAlign=middle;whiteSpace=wrap;rounded=0;fontSize=60;" parent="cFaB45KztUIKXS-_cTrr-14" vertex="1">
          <mxGeometry x="335" y="1884" width="60" height="30" as="geometry" />
        </mxCell>
        <mxCell id="exs4zGd6wT2FuKp7XYla-51" value="&lt;span style=&quot;font-size: 30px;&quot;&gt;政治団体(情報が利用者間で共有されます)&lt;/span&gt;" style="rounded=0;whiteSpace=wrap;html=1;align=left;dashed=1;dashPattern=8 8;verticalAlign=bottom;" parent="cFaB45KztUIKXS-_cTrr-14" vertex="1">
          <mxGeometry x="398" y="1957" width="612" height="40" as="geometry" />
        </mxCell>
        <mxCell id="exs4zGd6wT2FuKp7XYla-52" value="&lt;font style=&quot;font-size: 84px;&quot;&gt;○&lt;/font&gt;" style="text;html=1;strokeColor=none;fillColor=none;align=center;verticalAlign=middle;whiteSpace=wrap;rounded=0;fontSize=60;" parent="cFaB45KztUIKXS-_cTrr-14" vertex="1">
          <mxGeometry x="335" y="1954" width="60" height="30" as="geometry" />
        </mxCell>
        <mxCell id="exs4zGd6wT2FuKp7XYla-53" value="&lt;span style=&quot;font-size: 30px;&quot;&gt;政治団体を検索して指定&lt;/span&gt;" style="rounded=1;whiteSpace=wrap;html=1;" parent="cFaB45KztUIKXS-_cTrr-14" vertex="1">
          <mxGeometry x="1070" y="1952" width="390" height="51" as="geometry" />
        </mxCell>
        <mxCell id="exs4zGd6wT2FuKp7XYla-54" value="&lt;span style=&quot;font-size: 30px;&quot;&gt;関連者コード&lt;/span&gt;" style="rounded=0;whiteSpace=wrap;html=1;align=right;dashed=1;dashPattern=8 8;verticalAlign=bottom;" parent="cFaB45KztUIKXS-_cTrr-14" vertex="1">
          <mxGeometry x="110" y="2013" width="213" height="46" as="geometry" />
        </mxCell>
        <mxCell id="exs4zGd6wT2FuKp7XYla-55" value="&lt;span style=&quot;font-size: 30px;&quot;&gt;12345&lt;/span&gt;" style="rounded=0;whiteSpace=wrap;html=1;align=left;fillColor=#CCCCCC;" parent="cFaB45KztUIKXS-_cTrr-14" vertex="1">
          <mxGeometry x="343" y="2012" width="340" height="48" as="geometry" />
        </mxCell>
        <mxCell id="n8PC1St3OO45HGGwk-Nh-0" value="&lt;span style=&quot;font-size: 30px;&quot;&gt;三郎&lt;/span&gt;" style="rounded=0;whiteSpace=wrap;html=1;align=left;" vertex="1" parent="cFaB45KztUIKXS-_cTrr-14">
          <mxGeometry x="1142" y="2090" width="340" height="48" as="geometry" />
        </mxCell>
        <mxCell id="n8PC1St3OO45HGGwk-Nh-1" value="&lt;span style=&quot;font-size: 30px;&quot;&gt;各種Pay&lt;/span&gt;" style="rounded=0;whiteSpace=wrap;html=1;align=right;dashed=1;dashPattern=8 8;verticalAlign=bottom;" vertex="1" parent="cFaB45KztUIKXS-_cTrr-14">
          <mxGeometry x="163" y="1384" width="170" height="46" as="geometry" />
        </mxCell>
        <mxCell id="n8PC1St3OO45HGGwk-Nh-2" value="&lt;span style=&quot;font-size: 30px;&quot;&gt;1233&lt;/span&gt;" style="rounded=0;whiteSpace=wrap;html=1;align=right;" vertex="1" parent="cFaB45KztUIKXS-_cTrr-14">
          <mxGeometry x="353" y="1382" width="190" height="48" as="geometry" />
        </mxCell>
        <mxCell id="n8PC1St3OO45HGGwk-Nh-3" value="&lt;span style=&quot;font-size: 30px;&quot;&gt;きつねが木の葉で払うPay&lt;/span&gt;" style="rounded=0;whiteSpace=wrap;html=1;align=left;" vertex="1" parent="cFaB45KztUIKXS-_cTrr-14">
          <mxGeometry x="583" y="1382" width="420" height="48" as="geometry" />
        </mxCell>
        <mxCell id="n8PC1St3OO45HGGwk-Nh-4" value="&lt;span style=&quot;font-size: 30px;&quot;&gt;全銀金融機関を検索して指定&lt;/span&gt;" style="rounded=1;whiteSpace=wrap;html=1;" vertex="1" parent="cFaB45KztUIKXS-_cTrr-14">
          <mxGeometry x="1085" y="1454" width="415" height="60" as="geometry" />
        </mxCell>
        <mxCell id="n8PC1St3OO45HGGwk-Nh-5" value="&lt;span style=&quot;font-size: 30px;&quot;&gt;各種Payを検索して指定&lt;/span&gt;" style="rounded=1;whiteSpace=wrap;html=1;" vertex="1" parent="cFaB45KztUIKXS-_cTrr-14">
          <mxGeometry x="1090" y="1380" width="390" height="51" as="geometry" />
        </mxCell>
        <mxCell id="n8PC1St3OO45HGGwk-Nh-6" value="&lt;span style=&quot;font-size: 30px;&quot;&gt;法人を検索して指定&lt;/span&gt;" style="rounded=1;whiteSpace=wrap;html=1;" vertex="1" parent="cFaB45KztUIKXS-_cTrr-14">
          <mxGeometry x="1070" y="1879" width="390" height="51" as="geometry" />
        </mxCell>
      </root>
    </mxGraphModel>
  </diagram>
</mxfile>
